


<svg version="1.1" id="Layer_1" xmlns="http://www.w3.org/2000/svg" xmlns:xlink="http://www.w3.org/1999/xlink" x="0px" y="0px"
	 width="100%" viewBox="0 0 544 544" enable-background="new 0 0 544 544" xml:space="preserve">
<path fill="#000000" opacity="1.000000" stroke="none" 
	d="
M128.322266,501.732269 
	C97.566856,483.975525 67.148918,466.369446 36.657963,448.890747 
	C33.112549,446.858337 31.577339,444.518311 31.591482,440.227417 
	C31.747471,392.900482 31.726068,345.572632 31.594141,298.245483 
	C31.582977,294.239960 32.850948,291.969971 36.363304,289.963989 
	C68.620117,271.541260 100.732994,252.866470 132.997406,234.457214 
	C137.107590,232.112076 138.790649,229.498779 138.763138,224.640137 
	C138.553711,187.645935 138.706161,150.649750 138.551407,113.654991 
	C138.534012,109.497986 139.703140,107.084579 143.433395,104.954773 
	C184.662994,81.414505 225.801254,57.713867 266.895386,33.937649 
	C269.912323,32.192120 272.236969,32.250183 275.164093,33.946095 
	C316.529236,57.912266 357.925201,81.825478 399.376495,105.642212 
	C402.603119,107.496155 403.455811,109.818207 403.446503,113.334595 
	C403.347534,150.829666 403.463684,188.325470 403.289337,225.819992 
	C403.270081,229.954269 404.756470,232.107254 408.161987,234.057968 
	C440.681946,252.685730 473.097107,271.496552 505.629303,290.102753 
	C509.143219,292.112488 510.367645,294.484009 510.358521,298.465179 
	C510.249847,345.792389 510.259888,393.120117 510.388306,440.447266 
	C510.398621,444.245361 509.280945,446.485291 505.923065,448.412354 
	C464.606537,472.123413 423.346588,495.933594 382.159729,519.869080 
	C378.817535,521.811401 376.414856,521.786804 373.091003,519.850159 
	C341.283142,501.317322 309.324127,483.043732 277.535309,464.478516 
	C272.862152,461.749329 269.334412,461.523926 264.440430,464.407684 
	C233.161896,482.838409 201.609924,500.804535 170.267929,519.128784 
	C166.026398,521.608643 162.781937,521.879028 158.473190,519.196960 
	C148.721878,513.127014 138.605728,507.643158 128.322266,501.732269 
M47.936787,410.500000 
	C47.943653,417.498383 48.107101,424.501526 47.894493,431.493225 
	C47.779980,435.259003 49.031178,437.567352 52.403648,439.499634 
	C87.957390,459.870270 123.473511,480.308380 158.847427,500.988831 
	C163.088013,503.468018 166.046509,503.214447 170.114456,500.834961 
	C202.178131,482.079987 234.411865,463.615814 266.491058,444.887146 
	C269.860931,442.919708 272.296997,443.044617 275.579315,444.953400 
	C308.264648,463.960938 341.063202,482.773743 373.752777,501.774139 
	C376.574219,503.414062 378.573273,503.462402 381.431030,501.800476 
	C417.575043,480.781525 453.779816,459.866516 490.054565,439.074005 
	C493.407990,437.151825 494.708374,434.943512 494.640930,431.136719 
	C494.336945,413.980225 494.125854,396.819519 494.142853,379.660583 
	C494.165619,356.668671 494.338104,333.675690 494.651428,310.685974 
	C494.734131,304.619171 492.778687,300.783264 487.137238,297.601074 
	C455.654266,279.842285 424.469971,261.554779 393.075562,243.637253 
	C389.124542,241.382324 387.552216,238.881577 387.576019,234.240097 
	C387.767242,196.912735 387.651520,159.583908 387.733032,122.255753 
	C387.740204,118.968681 387.048279,116.762741 383.916321,114.967758 
	C347.784424,94.259903 311.714081,73.443962 275.709808,52.514988 
	C272.219238,50.485950 269.532898,50.618324 266.115692,52.605396 
	C230.697891,73.200577 195.235458,93.720016 159.675644,114.068657 
	C155.695496,116.346245 154.194687,118.867798 154.218933,123.493843 
	C154.413757,160.654526 154.273651,197.816879 154.419388,234.977997 
	C154.435074,238.978790 153.185455,241.246613 149.681702,243.254669 
	C117.601814,261.640045 85.671623,280.286804 53.571228,298.635895 
	C49.397186,301.021881 47.807037,303.752716 47.831429,308.514038 
	C48.003845,342.175323 47.931263,375.837860 47.936787,410.500000 
z"/>
<path fill="#000000" opacity="1.000000" stroke="none" 
	d="
M204.363525,457.442017 
	C192.235107,464.467010 180.371185,471.221497 168.618256,478.163879 
	C165.736176,479.866333 163.481995,480.092102 160.404739,478.301727 
	C131.193573,461.306335 101.898689,444.454193 72.561577,427.676819 
	C69.288132,425.804810 67.948227,423.605377 67.966049,419.742676 
	C68.118958,386.595581 68.140045,353.447296 67.994629,320.300232 
	C67.974037,315.607025 69.373238,312.818970 73.632690,310.403412 
	C102.453865,294.058716 131.137421,277.469696 159.759384,260.777740 
	C163.119186,258.818329 165.642746,258.878937 168.901230,260.775360 
	C198.255630,277.859314 227.660751,294.856812 257.131989,311.738251 
	C259.949615,313.352264 260.475586,315.316986 260.461670,318.220551 
	C260.368896,337.542358 260.559845,356.866241 260.374451,376.186707 
	C260.232269,391.003784 261.573761,405.804260 260.607269,420.635803 
	C260.382355,424.087494 259.125427,426.011505 256.209534,427.664917 
	C238.979385,437.435455 221.839294,447.364807 204.363525,457.442017 
z"/>
<path fill="#000000" opacity="1.000000" stroke="none" 
	d="
M367.287109,197.000000 
	C367.294922,209.997711 367.206421,222.496658 367.369904,234.992325 
	C367.416290,238.537964 366.389984,240.770309 363.156372,242.618591 
	C333.803253,259.396362 304.515015,276.288727 275.301910,293.309082 
	C272.136353,295.153412 269.801819,295.164093 266.655518,293.331635 
	C237.580643,276.397949 208.443466,259.570312 179.235672,242.867035 
	C175.899857,240.959366 174.639374,238.751907 174.652908,234.938568 
	C174.772308,201.278519 174.764465,167.617676 174.644806,133.957596 
	C174.631851,130.313934 175.919632,128.208725 179.037888,126.422890 
	C208.525940,109.534973 237.960114,92.552643 267.349640,75.493805 
	C270.007874,73.950859 272.045349,73.997475 274.680756,75.528625 
	C303.916412,92.514069 333.181244,109.450333 362.541199,126.219490 
	C366.254913,128.340622 367.421478,130.873169 367.382812,135.012100 
	C367.191376,155.506577 367.289978,176.003769 367.287109,197.000000 
z"/>
<path fill="#000000" opacity="1.000000" stroke="none" 
	d="
M288.166321,428.893982 
	C282.531494,427.063171 281.433929,423.444397 281.479309,418.072754 
	C281.757935,385.097870 281.696014,352.119110 281.534393,319.142731 
	C281.514557,315.097717 282.857208,312.812378 286.297211,310.843536 
	C314.905975,294.469116 343.472290,278.018982 371.931641,261.386719 
	C376.025574,258.994141 379.132782,258.928223 383.292572,261.365295 
	C411.734528,278.028412 440.307800,294.468475 468.919830,310.838684 
	C472.353760,312.803345 473.590424,314.917847 473.577881,319.066895 
	C473.478638,351.871521 473.628326,384.678589 474.007324,417.481354 
	C474.070679,422.965668 472.492493,426.004303 467.505829,428.817749 
	C439.529816,444.601318 411.768127,460.769073 384.085297,477.063995 
	C379.526489,479.747406 376.176300,479.911926 371.462463,477.131073 
	C343.934021,460.891205 316.170227,445.050293 288.166321,428.893982 
z"/>
</svg>